<svg width="21" height="21" viewBox="0 0 21 21" fill="none" xmlns="http://www.w3.org/2000/svg">
<g clip-path="url(#clip0_3924_2)">
<path d="M0 0V21H21V0H0ZM19.7698 9.88491H11.1157V1.23017H19.7698V9.88432V9.88491ZM9.88491 1.23017V9.88432H1.23077V1.23017H9.88491ZM1.23077 11.1151H9.88491V19.7692H1.23077V11.1151ZM11.1157 19.7692V11.1151H19.7698V19.7692H11.1157Z" fill="#266DE8"/>
<path d="M8.90765 5.54117L5.59598 2.22949L2.2843 5.54117L5.59598 8.85284L8.90765 5.54117ZM5.59598 4.17438L6.96277 5.54117L5.59598 6.90796L4.22919 5.54117L5.59598 4.17438Z" fill="#266DE8"/>
<path d="M15.4421 8.9077L18.3433 7.23247V3.88201L15.4421 2.20679L12.5409 3.88201V7.23247L15.4421 8.9077ZM14.03 4.7423L15.4421 3.92676L16.8542 4.7423V6.37278L15.4421 7.18832L14.03 6.37278V4.7423Z" fill="#266DE8"/>
<path d="M15.4422 12.1633C13.6279 12.1633 12.1514 13.6393 12.1514 15.4541C12.1514 17.269 13.6273 18.7443 15.4422 18.7443C17.257 18.7443 18.733 17.2684 18.733 15.4541C18.733 13.6399 17.257 12.1633 15.4422 12.1633ZM15.4422 17.2123C14.4727 17.2123 13.6834 16.4236 13.6834 15.4541C13.6834 14.4847 14.4721 13.6954 15.4422 13.6954C16.4122 13.6954 17.2009 14.4841 17.2009 15.4541C17.2009 16.4242 16.4122 17.2123 15.4422 17.2123Z" fill="#266DE8"/>
<path d="M5.59607 12.5667L2.26172 18.3417H8.93041L5.59607 12.5667ZM5.59607 15.5902L6.31138 16.8299H4.88016L5.59547 15.5902H5.59607Z" fill="#266DE8"/>
</g>
<defs>
<clipPath id="clip0_3924_2">
<rect width="21" height="21" fill="white"/>
</clipPath>
</defs>
</svg>
