<svg xmlns="http://www.w3.org/2000/svg" xmlns:xlink="http://www.w3.org/1999/xlink" width="28" height="28" fill="none"><g fill="#fff"><path d="M15.269 19.482H6.485c-.12 0-.235-.049-.319-.135s-.132-.203-.132-.325v-6.783c0-.122.048-.239.132-.325s.199-.135.319-.135h2.756c.06 0 .12.011.176.035a.46.46 0 0 1 .15.101.47.47 0 0 1 .101.152.48.48 0 0 1 .002.359.47.47 0 0 1-.099.153.46.46 0 0 1-.149.103.45.45 0 0 1-.176.037H6.954v5.877h7.894V12.72h-2.29a.446.446 0 0 1-.176-.035.46.46 0 0 1-.15-.101.475.475 0 0 1-.004-.664.452.452 0 0 1 .325-.139h2.717c.12 0 .235.049.319.135s.132.203.132.325v6.783c0 .122-.048.239-.132.325s-.2.135-.319.135z"/><path d="M12.389 19.481a.452.452 0 0 1-.382-.214L9.44 15.14l-2.567 4.127a.458.458 0 0 1-.122.13.45.45 0 0 1-.161.073.454.454 0 0 1-.34-.061.468.468 0 0 1-.198-.288.47.47 0 0 1-.004-.18.458.458 0 0 1 .064-.168l2.95-4.741a.457.457 0 0 1 .381-.214.445.445 0 0 1 .381.214l2.95 4.741a.47.47 0 0 1 .015.47.446.446 0 0 1-.4.236z"/><path d="M15.269 19.482a.43.43 0 0 0 .1-.012l.023-.006.03-.01a.178.178 0 0 0 .029-.012h.003a.54.54 0 0 0 .048-.026l.008-.005a.295.295 0 0 0 .045-.034l.013-.011a.41.41 0 0 0 .055-.058l.015-.02a.43.43 0 0 0 .043-.075l.011-.026.009-.027v-.003c0-.008.004-.016.007-.025l.006-.027a.205.205 0 0 0 .006-.049v-.036a.47.47 0 0 0-.07-.247l-.832-1.337-1.59-2.556a.457.457 0 0 0-.164-.157.44.44 0 0 0-.435 0 .457.457 0 0 0-.164.157l-1.062 1.706-.381.613a.47.47 0 0 0-.07.237.453.453 0 0 0 .061.239.29.29 0 0 0 .019.032l.004.006a.438.438 0 0 0 .589.133.45.45 0 0 0 .158-.154l.153-.247.909-1.46 1.602 2.574.821.921zm5.746-6.765h-3.721a.446.446 0 0 1-.176-.035.46.46 0 0 1-.15-.101.473.473 0 0 1-.004-.664.45.45 0 0 1 .325-.139h3.721c.06 0 .12.011.176.035a.46.46 0 0 1 .15.101.47.47 0 0 1 .101.152.48.48 0 0 1 .002.359.47.47 0 0 1-.099.153.463.463 0 0 1-.325.14zm0 2.221h-3.721a.446.446 0 0 1-.176-.035.46.46 0 0 1-.15-.101.476.476 0 0 1-.004-.664.45.45 0 0 1 .325-.139h3.721c.06 0 .12.011.176.035a.46.46 0 0 1 .15.101.47.47 0 0 1 .101.152.48.48 0 0 1 .002.359.47.47 0 0 1-.099.153.46.46 0 0 1-.149.103.45.45 0 0 1-.176.037zm0 2.222h-3.721a.446.446 0 0 1-.176-.035.46.46 0 0 1-.15-.101.473.473 0 0 1 .321-.804h3.721a.45.45 0 0 1 .176.035.46.46 0 0 1 .15.101.47.47 0 0 1 .101.152.48.48 0 0 1 .002.359.47.47 0 0 1-.099.153.46.46 0 0 1-.149.103.45.45 0 0 1-.176.037zm0 2.222h-3.721a.463.463 0 0 1-.176-.034.46.46 0 0 1-.15-.101.473.473 0 0 1-.004-.664.45.45 0 0 1 .325-.139h3.721c.06 0 .12.011.176.035a.46.46 0 0 1 .15.101.47.47 0 0 1 .101.151.48.48 0 0 1 .002.359.47.47 0 0 1-.099.153.46.46 0 0 1-.149.103.45.45 0 0 1-.176.037zM22.138 22H5.284a1.27 1.27 0 0 1-.907-.382A1.32 1.32 0 0 1 4 20.693V7.307a1.32 1.32 0 0 1 .375-.924A1.27 1.27 0 0 1 5.282 6h4.074c.549 0 1.017.37 1.201.889h11.581a1.27 1.27 0 0 1 .907.383 1.32 1.32 0 0 1 .376.924v1.492c.01.055.01.112 0 .168v10.838a1.32 1.32 0 0 1-.376.924 1.27 1.27 0 0 1-.907.383zM5.299 6.938a.376.376 0 0 0-.268.113.39.39 0 0 0-.111.273v13.349c0 .103.04.201.111.274s.168.114.269.114h16.869a.383.383 0 0 0 .267-.116.4.4 0 0 0 .113-.273V10.198H10.215c-.12 0-.235-.049-.319-.135s-.132-.203-.132-.325V7.323a.39.39 0 0 0-.112-.273.373.373 0 0 0-.269-.112H5.299zm5.384 2.321h11.866V8.165a.39.39 0 0 0-.112-.274.376.376 0 0 0-.268-.114H10.684v1.481zm-2.094-.692H6.1a.446.446 0 0 1-.176-.035.46.46 0 0 1-.15-.101.47.47 0 0 1-.101-.152.48.48 0 0 1-.036-.179c0-.061.011-.123.034-.18a.47.47 0 0 1 .099-.153.46.46 0 0 1 .149-.103.45.45 0 0 1 .176-.037h2.488a.456.456 0 0 1 .326.135.473.473 0 0 1 .004.664.45.45 0 0 1-.324.139z"/><use xlink:href="#a"/><use xlink:href="#a" x="4.263"/><path d="M10.883 12.716h-.014a.422.422 0 0 1-.241-.073.44.44 0 0 1-.161-.198.482.482 0 0 1-.032-.268.47.47 0 0 1 .12-.241.442.442 0 0 1 .495-.11c.06.023.114.059.159.106a.44.44 0 0 1 .098.165.47.47 0 0 1 .023.218.472.472 0 0 1-.239.348.445.445 0 0 1-.208.052z"/></g><defs><path id="a" d="M14.025 9.737V7.35a.46.46 0 0 1 .098-.286.45.45 0 0 1 .455-.167.463.463 0 0 1 .367.45v2.397a.462.462 0 0 1-.367.448.45.45 0 0 1-.455-.168.467.467 0 0 1-.098-.286z"/></defs></svg>